SplineFontDB: 3.0
FontName: DSEG7ClassicMini-Light
FullName: DSEG7 Classic Mini-Light
FamilyName: DSEG7 Classic Mini
Weight: Light
Copyright: Created by Keshikan(https://twitter.com/keshinomi_88pro)\nwith FontForge 2.0 (http://fontforge.sf.net)
UComments: "2014-8-31: Created."
Version: 0.46
ItalicAngle: 0
UnderlinePosition: -100
UnderlineWidth: 50
Ascent: 1000
Descent: 0
InvalidEm: 0
LayerCount: 2
Layer: 0 0 "+gMyXYgAA" 1
Layer: 1 0 "+Uk2XYgAA" 0
XUID: [1021 682 390630330 14528854]
FSType: 8
OS2Version: 0
OS2_WeightWidthSlopeOnly: 0
OS2_UseTypoMetrics: 1
CreationTime: 1409488158
ModificationTime: 1584214801
PfmFamily: 17
TTFWeight: 300
TTFWidth: 5
LineGap: 90
VLineGap: 0
OS2TypoAscent: 0
OS2TypoAOffset: 1
OS2TypoDescent: 0
OS2TypoDOffset: 1
OS2TypoLinegap: 90
OS2WinAscent: 0
OS2WinAOffset: 1
OS2WinDescent: 0
OS2WinDOffset: 1
HheadAscent: 0
HheadAOffset: 1
HheadDescent: 0
HheadDOffset: 1
OS2Vendor: 'PfEd'
MarkAttachClasses: 1
DEI: 91125

StartChar: zero
Encoding: 48 48 0
Width: 816
VWidth: 200
Flags: HW
LayerCount: 2
Fore
SplineSet
130 64 m 1
 99 95 l 1
 99 477 l 1
 120 477 l 1
 130 467 l 1
 161 436 l 1
 161 95 l 1
 130 64 l 1
194 938 m 1
 163 969 l 1
 194 1000 l 1
 622 1000 l 1
 653 969 l 1
 622 938 l 1
 194 938 l 1
130 533 m 1
 120 523 l 1
 99 523 l 1
 99 905 l 1
 130 936 l 1
 161 905 l 1
 161 564 l 1
 130 533 l 1
686 936 m 1
 717 905 l 1
 717 523 l 1
 696 523 l 1
 686 533 l 1
 655 564 l 1
 655 905 l 1
 686 936 l 1
686 467 m 1
 696 477 l 1
 717 477 l 1
 717 95 l 1
 686 64 l 1
 655 95 l 1
 655 436 l 1
 686 467 l 1
653 31 m 1
 622 0 l 1
 194 0 l 1
 163 31 l 1
 194 62 l 1
 622 62 l 1
 653 31 l 1
EndSplineSet
EndChar

StartChar: eight
Encoding: 56 56 1
Width: 816
VWidth: 200
Flags: HW
LayerCount: 2
Fore
SplineSet
130 64 m 1
 99 95 l 1
 99 477 l 1
 120 477 l 1
 130 467 l 1
 161 436 l 1
 161 95 l 1
 130 64 l 1
163 500 m 1
 194 531 l 1
 622 531 l 1
 653 500 l 1
 622 469 l 1
 194 469 l 1
 163 500 l 1
194 938 m 1
 163 969 l 1
 194 1000 l 1
 622 1000 l 1
 653 969 l 1
 622 938 l 1
 194 938 l 1
130 533 m 1
 120 523 l 1
 99 523 l 1
 99 905 l 1
 130 936 l 1
 161 905 l 1
 161 564 l 1
 130 533 l 1
686 936 m 1
 717 905 l 1
 717 523 l 1
 696 523 l 1
 686 533 l 1
 655 564 l 1
 655 905 l 1
 686 936 l 1
686 467 m 1
 696 477 l 1
 717 477 l 1
 717 95 l 1
 686 64 l 1
 655 95 l 1
 655 436 l 1
 686 467 l 1
653 31 m 1
 622 0 l 1
 194 0 l 1
 163 31 l 1
 194 62 l 1
 622 62 l 1
 653 31 l 1
EndSplineSet
EndChar

StartChar: one
Encoding: 49 49 2
Width: 816
VWidth: 200
Flags: HW
LayerCount: 2
Fore
SplineSet
686 936 m 1
 717 905 l 1
 717 523 l 1
 696 523 l 1
 686 533 l 1
 655 564 l 1
 655 905 l 1
 686 936 l 1
686 467 m 1
 696 477 l 1
 717 477 l 1
 717 95 l 1
 686 64 l 1
 655 95 l 1
 655 436 l 1
 686 467 l 1
EndSplineSet
EndChar

StartChar: two
Encoding: 50 50 3
Width: 816
VWidth: 200
Flags: HW
LayerCount: 2
Fore
SplineSet
130 64 m 1
 99 95 l 1
 99 477 l 1
 120 477 l 1
 130 467 l 1
 161 436 l 1
 161 95 l 1
 130 64 l 1
163 500 m 1
 194 531 l 1
 622 531 l 1
 653 500 l 1
 622 469 l 1
 194 469 l 1
 163 500 l 1
194 938 m 1
 163 969 l 1
 194 1000 l 1
 622 1000 l 1
 653 969 l 1
 622 938 l 1
 194 938 l 1
686 936 m 1
 717 905 l 1
 717 523 l 1
 696 523 l 1
 686 533 l 1
 655 564 l 1
 655 905 l 1
 686 936 l 1
653 31 m 1
 622 0 l 1
 194 0 l 1
 163 31 l 1
 194 62 l 1
 622 62 l 1
 653 31 l 1
EndSplineSet
EndChar

StartChar: three
Encoding: 51 51 4
Width: 816
VWidth: 200
Flags: HW
LayerCount: 2
Fore
SplineSet
163 500 m 1
 194 531 l 1
 622 531 l 1
 653 500 l 1
 622 469 l 1
 194 469 l 1
 163 500 l 1
194 938 m 1
 163 969 l 1
 194 1000 l 1
 622 1000 l 1
 653 969 l 1
 622 938 l 1
 194 938 l 1
686 936 m 1
 717 905 l 1
 717 523 l 1
 696 523 l 1
 686 533 l 1
 655 564 l 1
 655 905 l 1
 686 936 l 1
686 467 m 1
 696 477 l 1
 717 477 l 1
 717 95 l 1
 686 64 l 1
 655 95 l 1
 655 436 l 1
 686 467 l 1
653 31 m 1
 622 0 l 1
 194 0 l 1
 163 31 l 1
 194 62 l 1
 622 62 l 1
 653 31 l 1
EndSplineSet
EndChar

StartChar: four
Encoding: 52 52 5
Width: 816
VWidth: 200
Flags: HW
LayerCount: 2
Fore
SplineSet
163 500 m 1
 194 531 l 1
 622 531 l 1
 653 500 l 1
 622 469 l 1
 194 469 l 1
 163 500 l 1
130 533 m 1
 120 523 l 1
 99 523 l 1
 99 905 l 1
 130 936 l 1
 161 905 l 1
 161 564 l 1
 130 533 l 1
686 936 m 1
 717 905 l 1
 717 523 l 1
 696 523 l 1
 686 533 l 1
 655 564 l 1
 655 905 l 1
 686 936 l 1
686 467 m 1
 696 477 l 1
 717 477 l 1
 717 95 l 1
 686 64 l 1
 655 95 l 1
 655 436 l 1
 686 467 l 1
EndSplineSet
EndChar

StartChar: five
Encoding: 53 53 6
Width: 816
VWidth: 200
Flags: HW
LayerCount: 2
Fore
SplineSet
163 500 m 1
 194 531 l 1
 622 531 l 1
 653 500 l 1
 622 469 l 1
 194 469 l 1
 163 500 l 1
194 938 m 1
 163 969 l 1
 194 1000 l 1
 622 1000 l 1
 653 969 l 1
 622 938 l 1
 194 938 l 1
130 533 m 1
 120 523 l 1
 99 523 l 1
 99 905 l 1
 130 936 l 1
 161 905 l 1
 161 564 l 1
 130 533 l 1
686 467 m 1
 696 477 l 1
 717 477 l 1
 717 95 l 1
 686 64 l 1
 655 95 l 1
 655 436 l 1
 686 467 l 1
653 31 m 1
 622 0 l 1
 194 0 l 1
 163 31 l 1
 194 62 l 1
 622 62 l 1
 653 31 l 1
EndSplineSet
EndChar

StartChar: six
Encoding: 54 54 7
Width: 816
VWidth: 200
Flags: HW
LayerCount: 2
Fore
SplineSet
130 64 m 1
 99 95 l 1
 99 477 l 1
 120 477 l 1
 130 467 l 1
 161 436 l 1
 161 95 l 1
 130 64 l 1
163 500 m 1
 194 531 l 1
 622 531 l 1
 653 500 l 1
 622 469 l 1
 194 469 l 1
 163 500 l 1
194 938 m 1
 163 969 l 1
 194 1000 l 1
 622 1000 l 1
 653 969 l 1
 622 938 l 1
 194 938 l 1
130 533 m 1
 120 523 l 1
 99 523 l 1
 99 905 l 1
 130 936 l 1
 161 905 l 1
 161 564 l 1
 130 533 l 1
686 467 m 1
 696 477 l 1
 717 477 l 1
 717 95 l 1
 686 64 l 1
 655 95 l 1
 655 436 l 1
 686 467 l 1
653 31 m 1
 622 0 l 1
 194 0 l 1
 163 31 l 1
 194 62 l 1
 622 62 l 1
 653 31 l 1
EndSplineSet
EndChar

StartChar: seven
Encoding: 55 55 8
Width: 816
VWidth: 200
Flags: HW
LayerCount: 2
Fore
SplineSet
194 938 m 1
 163 969 l 1
 194 1000 l 1
 622 1000 l 1
 653 969 l 1
 622 938 l 1
 194 938 l 1
130 533 m 1
 120 523 l 1
 99 523 l 1
 99 905 l 1
 130 936 l 1
 161 905 l 1
 161 564 l 1
 130 533 l 1
686 936 m 1
 717 905 l 1
 717 523 l 1
 696 523 l 1
 686 533 l 1
 655 564 l 1
 655 905 l 1
 686 936 l 1
686 467 m 1
 696 477 l 1
 717 477 l 1
 717 95 l 1
 686 64 l 1
 655 95 l 1
 655 436 l 1
 686 467 l 1
EndSplineSet
EndChar

StartChar: nine
Encoding: 57 57 9
Width: 816
VWidth: 200
Flags: HW
LayerCount: 2
Fore
SplineSet
163 500 m 1
 194 531 l 1
 622 531 l 1
 653 500 l 1
 622 469 l 1
 194 469 l 1
 163 500 l 1
194 938 m 1
 163 969 l 1
 194 1000 l 1
 622 1000 l 1
 653 969 l 1
 622 938 l 1
 194 938 l 1
130 533 m 1
 120 523 l 1
 99 523 l 1
 99 905 l 1
 130 936 l 1
 161 905 l 1
 161 564 l 1
 130 533 l 1
686 936 m 1
 717 905 l 1
 717 523 l 1
 696 523 l 1
 686 533 l 1
 655 564 l 1
 655 905 l 1
 686 936 l 1
686 467 m 1
 696 477 l 1
 717 477 l 1
 717 95 l 1
 686 64 l 1
 655 95 l 1
 655 436 l 1
 686 467 l 1
653 31 m 1
 622 0 l 1
 194 0 l 1
 163 31 l 1
 194 62 l 1
 622 62 l 1
 653 31 l 1
EndSplineSet
EndChar

StartChar: a
Encoding: 97 97 10
Width: 816
VWidth: 200
Flags: HW
LayerCount: 2
Fore
SplineSet
130 64 m 1
 99 95 l 1
 99 477 l 1
 120 477 l 1
 130 467 l 1
 161 436 l 1
 161 95 l 1
 130 64 l 1
163 500 m 1
 194 531 l 1
 622 531 l 1
 653 500 l 1
 622 469 l 1
 194 469 l 1
 163 500 l 1
194 938 m 1
 163 969 l 1
 194 1000 l 1
 622 1000 l 1
 653 969 l 1
 622 938 l 1
 194 938 l 1
130 533 m 1
 120 523 l 1
 99 523 l 1
 99 905 l 1
 130 936 l 1
 161 905 l 1
 161 564 l 1
 130 533 l 1
686 936 m 1
 717 905 l 1
 717 523 l 1
 696 523 l 1
 686 533 l 1
 655 564 l 1
 655 905 l 1
 686 936 l 1
686 467 m 1
 696 477 l 1
 717 477 l 1
 717 95 l 1
 686 64 l 1
 655 95 l 1
 655 436 l 1
 686 467 l 1
EndSplineSet
EndChar

StartChar: b
Encoding: 98 98 11
Width: 816
VWidth: 200
Flags: HW
LayerCount: 2
Fore
SplineSet
130 64 m 1
 99 95 l 1
 99 477 l 1
 120 477 l 1
 130 467 l 1
 161 436 l 1
 161 95 l 1
 130 64 l 1
163 500 m 1
 194 531 l 1
 622 531 l 1
 653 500 l 1
 622 469 l 1
 194 469 l 1
 163 500 l 1
130 533 m 1
 120 523 l 1
 99 523 l 1
 99 905 l 1
 130 936 l 1
 161 905 l 1
 161 564 l 1
 130 533 l 1
686 467 m 1
 696 477 l 1
 717 477 l 1
 717 95 l 1
 686 64 l 1
 655 95 l 1
 655 436 l 1
 686 467 l 1
653 31 m 1
 622 0 l 1
 194 0 l 1
 163 31 l 1
 194 62 l 1
 622 62 l 1
 653 31 l 1
EndSplineSet
EndChar

StartChar: c
Encoding: 99 99 12
Width: 816
VWidth: 200
Flags: HW
LayerCount: 2
Fore
SplineSet
130 64 m 1
 99 95 l 1
 99 477 l 1
 120 477 l 1
 130 467 l 1
 161 436 l 1
 161 95 l 1
 130 64 l 1
163 500 m 1
 194 531 l 1
 622 531 l 1
 653 500 l 1
 622 469 l 1
 194 469 l 1
 163 500 l 1
653 31 m 1
 622 0 l 1
 194 0 l 1
 163 31 l 1
 194 62 l 1
 622 62 l 1
 653 31 l 1
EndSplineSet
EndChar

StartChar: d
Encoding: 100 100 13
Width: 816
VWidth: 200
Flags: HW
LayerCount: 2
Fore
SplineSet
130 64 m 1
 99 95 l 1
 99 477 l 1
 120 477 l 1
 130 467 l 1
 161 436 l 1
 161 95 l 1
 130 64 l 1
163 500 m 1
 194 531 l 1
 622 531 l 1
 653 500 l 1
 622 469 l 1
 194 469 l 1
 163 500 l 1
686 936 m 1
 717 905 l 1
 717 523 l 1
 696 523 l 1
 686 533 l 1
 655 564 l 1
 655 905 l 1
 686 936 l 1
686 467 m 1
 696 477 l 1
 717 477 l 1
 717 95 l 1
 686 64 l 1
 655 95 l 1
 655 436 l 1
 686 467 l 1
653 31 m 1
 622 0 l 1
 194 0 l 1
 163 31 l 1
 194 62 l 1
 622 62 l 1
 653 31 l 1
EndSplineSet
EndChar

StartChar: e
Encoding: 101 101 14
Width: 816
VWidth: 200
Flags: HW
LayerCount: 2
Fore
SplineSet
130 64 m 1
 99 95 l 1
 99 477 l 1
 120 477 l 1
 130 467 l 1
 161 436 l 1
 161 95 l 1
 130 64 l 1
163 500 m 1
 194 531 l 1
 622 531 l 1
 653 500 l 1
 622 469 l 1
 194 469 l 1
 163 500 l 1
194 938 m 1
 163 969 l 1
 194 1000 l 1
 622 1000 l 1
 653 969 l 1
 622 938 l 1
 194 938 l 1
130 533 m 1
 120 523 l 1
 99 523 l 1
 99 905 l 1
 130 936 l 1
 161 905 l 1
 161 564 l 1
 130 533 l 1
653 31 m 1
 622 0 l 1
 194 0 l 1
 163 31 l 1
 194 62 l 1
 622 62 l 1
 653 31 l 1
EndSplineSet
EndChar

StartChar: f
Encoding: 102 102 15
Width: 816
VWidth: 200
Flags: HW
LayerCount: 2
Fore
SplineSet
130 64 m 1
 99 95 l 1
 99 477 l 1
 120 477 l 1
 130 467 l 1
 161 436 l 1
 161 95 l 1
 130 64 l 1
163 500 m 1
 194 531 l 1
 622 531 l 1
 653 500 l 1
 622 469 l 1
 194 469 l 1
 163 500 l 1
194 938 m 1
 163 969 l 1
 194 1000 l 1
 622 1000 l 1
 653 969 l 1
 622 938 l 1
 194 938 l 1
130 533 m 1
 120 523 l 1
 99 523 l 1
 99 905 l 1
 130 936 l 1
 161 905 l 1
 161 564 l 1
 130 533 l 1
EndSplineSet
EndChar

StartChar: g
Encoding: 103 103 16
Width: 816
VWidth: 200
Flags: HW
LayerCount: 2
Fore
SplineSet
130 64 m 1
 99 95 l 1
 99 477 l 1
 120 477 l 1
 130 467 l 1
 161 436 l 1
 161 95 l 1
 130 64 l 1
194 938 m 1
 163 969 l 1
 194 1000 l 1
 622 1000 l 1
 653 969 l 1
 622 938 l 1
 194 938 l 1
130 533 m 1
 120 523 l 1
 99 523 l 1
 99 905 l 1
 130 936 l 1
 161 905 l 1
 161 564 l 1
 130 533 l 1
686 467 m 1
 696 477 l 1
 717 477 l 1
 717 95 l 1
 686 64 l 1
 655 95 l 1
 655 436 l 1
 686 467 l 1
653 31 m 1
 622 0 l 1
 194 0 l 1
 163 31 l 1
 194 62 l 1
 622 62 l 1
 653 31 l 1
EndSplineSet
EndChar

StartChar: h
Encoding: 104 104 17
Width: 816
VWidth: 200
Flags: HW
LayerCount: 2
Fore
SplineSet
130 64 m 1
 99 95 l 1
 99 477 l 1
 120 477 l 1
 130 467 l 1
 161 436 l 1
 161 95 l 1
 130 64 l 1
163 500 m 1
 194 531 l 1
 622 531 l 1
 653 500 l 1
 622 469 l 1
 194 469 l 1
 163 500 l 1
130 533 m 1
 120 523 l 1
 99 523 l 1
 99 905 l 1
 130 936 l 1
 161 905 l 1
 161 564 l 1
 130 533 l 1
686 467 m 1
 696 477 l 1
 717 477 l 1
 717 95 l 1
 686 64 l 1
 655 95 l 1
 655 436 l 1
 686 467 l 1
EndSplineSet
EndChar

StartChar: i
Encoding: 105 105 18
Width: 816
VWidth: 200
Flags: HW
LayerCount: 2
Fore
SplineSet
686 467 m 1
 696 477 l 1
 717 477 l 1
 717 95 l 1
 686 64 l 1
 655 95 l 1
 655 436 l 1
 686 467 l 1
EndSplineSet
EndChar

StartChar: j
Encoding: 106 106 19
Width: 816
VWidth: 200
Flags: HW
LayerCount: 2
Fore
SplineSet
130 64 m 1
 99 95 l 1
 99 477 l 1
 120 477 l 1
 130 467 l 1
 161 436 l 1
 161 95 l 1
 130 64 l 1
686 936 m 1
 717 905 l 1
 717 523 l 1
 696 523 l 1
 686 533 l 1
 655 564 l 1
 655 905 l 1
 686 936 l 1
686 467 m 1
 696 477 l 1
 717 477 l 1
 717 95 l 1
 686 64 l 1
 655 95 l 1
 655 436 l 1
 686 467 l 1
653 31 m 1
 622 0 l 1
 194 0 l 1
 163 31 l 1
 194 62 l 1
 622 62 l 1
 653 31 l 1
EndSplineSet
EndChar

StartChar: k
Encoding: 107 107 20
Width: 816
VWidth: 200
Flags: HW
LayerCount: 2
Fore
SplineSet
130 64 m 1
 99 95 l 1
 99 477 l 1
 120 477 l 1
 130 467 l 1
 161 436 l 1
 161 95 l 1
 130 64 l 1
163 500 m 1
 194 531 l 1
 622 531 l 1
 653 500 l 1
 622 469 l 1
 194 469 l 1
 163 500 l 1
194 938 m 1
 163 969 l 1
 194 1000 l 1
 622 1000 l 1
 653 969 l 1
 622 938 l 1
 194 938 l 1
130 533 m 1
 120 523 l 1
 99 523 l 1
 99 905 l 1
 130 936 l 1
 161 905 l 1
 161 564 l 1
 130 533 l 1
686 467 m 1
 696 477 l 1
 717 477 l 1
 717 95 l 1
 686 64 l 1
 655 95 l 1
 655 436 l 1
 686 467 l 1
EndSplineSet
EndChar

StartChar: l
Encoding: 108 108 21
Width: 816
VWidth: 200
Flags: HW
LayerCount: 2
Fore
SplineSet
130 64 m 1
 99 95 l 1
 99 477 l 1
 120 477 l 1
 130 467 l 1
 161 436 l 1
 161 95 l 1
 130 64 l 1
130 533 m 1
 120 523 l 1
 99 523 l 1
 99 905 l 1
 130 936 l 1
 161 905 l 1
 161 564 l 1
 130 533 l 1
653 31 m 1
 622 0 l 1
 194 0 l 1
 163 31 l 1
 194 62 l 1
 622 62 l 1
 653 31 l 1
EndSplineSet
EndChar

StartChar: m
Encoding: 109 109 22
Width: 816
VWidth: 200
Flags: HW
LayerCount: 2
Fore
SplineSet
130 64 m 1
 99 95 l 1
 99 477 l 1
 120 477 l 1
 130 467 l 1
 161 436 l 1
 161 95 l 1
 130 64 l 1
194 938 m 1
 163 969 l 1
 194 1000 l 1
 622 1000 l 1
 653 969 l 1
 622 938 l 1
 194 938 l 1
130 533 m 1
 120 523 l 1
 99 523 l 1
 99 905 l 1
 130 936 l 1
 161 905 l 1
 161 564 l 1
 130 533 l 1
686 936 m 1
 717 905 l 1
 717 523 l 1
 696 523 l 1
 686 533 l 1
 655 564 l 1
 655 905 l 1
 686 936 l 1
686 467 m 1
 696 477 l 1
 717 477 l 1
 717 95 l 1
 686 64 l 1
 655 95 l 1
 655 436 l 1
 686 467 l 1
EndSplineSet
EndChar

StartChar: n
Encoding: 110 110 23
Width: 816
VWidth: 200
Flags: HW
LayerCount: 2
Fore
SplineSet
130 64 m 1
 99 95 l 1
 99 477 l 1
 120 477 l 1
 130 467 l 1
 161 436 l 1
 161 95 l 1
 130 64 l 1
163 500 m 1
 194 531 l 1
 622 531 l 1
 653 500 l 1
 622 469 l 1
 194 469 l 1
 163 500 l 1
686 467 m 1
 696 477 l 1
 717 477 l 1
 717 95 l 1
 686 64 l 1
 655 95 l 1
 655 436 l 1
 686 467 l 1
EndSplineSet
EndChar

StartChar: o
Encoding: 111 111 24
Width: 816
VWidth: 200
Flags: HW
LayerCount: 2
Fore
SplineSet
130 64 m 1
 99 95 l 1
 99 477 l 1
 120 477 l 1
 130 467 l 1
 161 436 l 1
 161 95 l 1
 130 64 l 1
163 500 m 1
 194 531 l 1
 622 531 l 1
 653 500 l 1
 622 469 l 1
 194 469 l 1
 163 500 l 1
686 467 m 1
 696 477 l 1
 717 477 l 1
 717 95 l 1
 686 64 l 1
 655 95 l 1
 655 436 l 1
 686 467 l 1
653 31 m 1
 622 0 l 1
 194 0 l 1
 163 31 l 1
 194 62 l 1
 622 62 l 1
 653 31 l 1
EndSplineSet
EndChar

StartChar: p
Encoding: 112 112 25
Width: 816
VWidth: 200
Flags: HW
LayerCount: 2
Fore
SplineSet
130 64 m 1
 99 95 l 1
 99 477 l 1
 120 477 l 1
 130 467 l 1
 161 436 l 1
 161 95 l 1
 130 64 l 1
163 500 m 1
 194 531 l 1
 622 531 l 1
 653 500 l 1
 622 469 l 1
 194 469 l 1
 163 500 l 1
194 938 m 1
 163 969 l 1
 194 1000 l 1
 622 1000 l 1
 653 969 l 1
 622 938 l 1
 194 938 l 1
130 533 m 1
 120 523 l 1
 99 523 l 1
 99 905 l 1
 130 936 l 1
 161 905 l 1
 161 564 l 1
 130 533 l 1
686 936 m 1
 717 905 l 1
 717 523 l 1
 696 523 l 1
 686 533 l 1
 655 564 l 1
 655 905 l 1
 686 936 l 1
EndSplineSet
EndChar

StartChar: q
Encoding: 113 113 26
Width: 816
VWidth: 200
Flags: HW
LayerCount: 2
Fore
SplineSet
163 500 m 1
 194 531 l 1
 622 531 l 1
 653 500 l 1
 622 469 l 1
 194 469 l 1
 163 500 l 1
194 938 m 1
 163 969 l 1
 194 1000 l 1
 622 1000 l 1
 653 969 l 1
 622 938 l 1
 194 938 l 1
130 533 m 1
 120 523 l 1
 99 523 l 1
 99 905 l 1
 130 936 l 1
 161 905 l 1
 161 564 l 1
 130 533 l 1
686 936 m 1
 717 905 l 1
 717 523 l 1
 696 523 l 1
 686 533 l 1
 655 564 l 1
 655 905 l 1
 686 936 l 1
686 467 m 1
 696 477 l 1
 717 477 l 1
 717 95 l 1
 686 64 l 1
 655 95 l 1
 655 436 l 1
 686 467 l 1
EndSplineSet
EndChar

StartChar: r
Encoding: 114 114 27
Width: 816
VWidth: 200
Flags: HW
LayerCount: 2
Fore
SplineSet
130 64 m 1
 99 95 l 1
 99 477 l 1
 120 477 l 1
 130 467 l 1
 161 436 l 1
 161 95 l 1
 130 64 l 1
163 500 m 1
 194 531 l 1
 622 531 l 1
 653 500 l 1
 622 469 l 1
 194 469 l 1
 163 500 l 1
EndSplineSet
EndChar

StartChar: s
Encoding: 115 115 28
Width: 816
VWidth: 200
Flags: HW
LayerCount: 2
Fore
SplineSet
163 500 m 1
 194 531 l 1
 622 531 l 1
 653 500 l 1
 622 469 l 1
 194 469 l 1
 163 500 l 1
130 533 m 1
 120 523 l 1
 99 523 l 1
 99 905 l 1
 130 936 l 1
 161 905 l 1
 161 564 l 1
 130 533 l 1
686 467 m 1
 696 477 l 1
 717 477 l 1
 717 95 l 1
 686 64 l 1
 655 95 l 1
 655 436 l 1
 686 467 l 1
653 31 m 1
 622 0 l 1
 194 0 l 1
 163 31 l 1
 194 62 l 1
 622 62 l 1
 653 31 l 1
EndSplineSet
EndChar

StartChar: t
Encoding: 116 116 29
Width: 816
VWidth: 200
Flags: HW
LayerCount: 2
Fore
SplineSet
130 64 m 1
 99 95 l 1
 99 477 l 1
 120 477 l 1
 130 467 l 1
 161 436 l 1
 161 95 l 1
 130 64 l 1
163 500 m 1
 194 531 l 1
 622 531 l 1
 653 500 l 1
 622 469 l 1
 194 469 l 1
 163 500 l 1
130 533 m 1
 120 523 l 1
 99 523 l 1
 99 905 l 1
 130 936 l 1
 161 905 l 1
 161 564 l 1
 130 533 l 1
653 31 m 1
 622 0 l 1
 194 0 l 1
 163 31 l 1
 194 62 l 1
 622 62 l 1
 653 31 l 1
EndSplineSet
EndChar

StartChar: u
Encoding: 117 117 30
Width: 816
VWidth: 200
Flags: HW
LayerCount: 2
Fore
SplineSet
130 64 m 1
 99 95 l 1
 99 477 l 1
 120 477 l 1
 130 467 l 1
 161 436 l 1
 161 95 l 1
 130 64 l 1
686 467 m 1
 696 477 l 1
 717 477 l 1
 717 95 l 1
 686 64 l 1
 655 95 l 1
 655 436 l 1
 686 467 l 1
653 31 m 1
 622 0 l 1
 194 0 l 1
 163 31 l 1
 194 62 l 1
 622 62 l 1
 653 31 l 1
EndSplineSet
EndChar

StartChar: v
Encoding: 118 118 31
Width: 816
VWidth: 200
Flags: HW
LayerCount: 2
Fore
SplineSet
130 64 m 1
 99 95 l 1
 99 477 l 1
 120 477 l 1
 130 467 l 1
 161 436 l 1
 161 95 l 1
 130 64 l 1
130 533 m 1
 120 523 l 1
 99 523 l 1
 99 905 l 1
 130 936 l 1
 161 905 l 1
 161 564 l 1
 130 533 l 1
686 936 m 1
 717 905 l 1
 717 523 l 1
 696 523 l 1
 686 533 l 1
 655 564 l 1
 655 905 l 1
 686 936 l 1
686 467 m 1
 696 477 l 1
 717 477 l 1
 717 95 l 1
 686 64 l 1
 655 95 l 1
 655 436 l 1
 686 467 l 1
653 31 m 1
 622 0 l 1
 194 0 l 1
 163 31 l 1
 194 62 l 1
 622 62 l 1
 653 31 l 1
EndSplineSet
EndChar

StartChar: w
Encoding: 119 119 32
Width: 816
VWidth: 200
Flags: HW
LayerCount: 2
Fore
SplineSet
130 64 m 1
 99 95 l 1
 99 477 l 1
 120 477 l 1
 130 467 l 1
 161 436 l 1
 161 95 l 1
 130 64 l 1
163 500 m 1
 194 531 l 1
 622 531 l 1
 653 500 l 1
 622 469 l 1
 194 469 l 1
 163 500 l 1
130 533 m 1
 120 523 l 1
 99 523 l 1
 99 905 l 1
 130 936 l 1
 161 905 l 1
 161 564 l 1
 130 533 l 1
686 936 m 1
 717 905 l 1
 717 523 l 1
 696 523 l 1
 686 533 l 1
 655 564 l 1
 655 905 l 1
 686 936 l 1
686 467 m 1
 696 477 l 1
 717 477 l 1
 717 95 l 1
 686 64 l 1
 655 95 l 1
 655 436 l 1
 686 467 l 1
653 31 m 1
 622 0 l 1
 194 0 l 1
 163 31 l 1
 194 62 l 1
 622 62 l 1
 653 31 l 1
EndSplineSet
EndChar

StartChar: x
Encoding: 120 120 33
Width: 816
VWidth: 200
Flags: HW
LayerCount: 2
Fore
SplineSet
130 64 m 1
 99 95 l 1
 99 477 l 1
 120 477 l 1
 130 467 l 1
 161 436 l 1
 161 95 l 1
 130 64 l 1
163 500 m 1
 194 531 l 1
 622 531 l 1
 653 500 l 1
 622 469 l 1
 194 469 l 1
 163 500 l 1
130 533 m 1
 120 523 l 1
 99 523 l 1
 99 905 l 1
 130 936 l 1
 161 905 l 1
 161 564 l 1
 130 533 l 1
686 936 m 1
 717 905 l 1
 717 523 l 1
 696 523 l 1
 686 533 l 1
 655 564 l 1
 655 905 l 1
 686 936 l 1
686 467 m 1
 696 477 l 1
 717 477 l 1
 717 95 l 1
 686 64 l 1
 655 95 l 1
 655 436 l 1
 686 467 l 1
EndSplineSet
EndChar

StartChar: y
Encoding: 121 121 34
Width: 816
VWidth: 200
Flags: HW
LayerCount: 2
Fore
SplineSet
163 500 m 1
 194 531 l 1
 622 531 l 1
 653 500 l 1
 622 469 l 1
 194 469 l 1
 163 500 l 1
130 533 m 1
 120 523 l 1
 99 523 l 1
 99 905 l 1
 130 936 l 1
 161 905 l 1
 161 564 l 1
 130 533 l 1
686 936 m 1
 717 905 l 1
 717 523 l 1
 696 523 l 1
 686 533 l 1
 655 564 l 1
 655 905 l 1
 686 936 l 1
686 467 m 1
 696 477 l 1
 717 477 l 1
 717 95 l 1
 686 64 l 1
 655 95 l 1
 655 436 l 1
 686 467 l 1
653 31 m 1
 622 0 l 1
 194 0 l 1
 163 31 l 1
 194 62 l 1
 622 62 l 1
 653 31 l 1
EndSplineSet
EndChar

StartChar: z
Encoding: 122 122 35
Width: 816
VWidth: 200
Flags: HW
LayerCount: 2
Fore
SplineSet
130 64 m 1
 99 95 l 1
 99 477 l 1
 120 477 l 1
 130 467 l 1
 161 436 l 1
 161 95 l 1
 130 64 l 1
194 938 m 1
 163 969 l 1
 194 1000 l 1
 622 1000 l 1
 653 969 l 1
 622 938 l 1
 194 938 l 1
686 936 m 1
 717 905 l 1
 717 523 l 1
 696 523 l 1
 686 533 l 1
 655 564 l 1
 655 905 l 1
 686 936 l 1
653 31 m 1
 622 0 l 1
 194 0 l 1
 163 31 l 1
 194 62 l 1
 622 62 l 1
 653 31 l 1
EndSplineSet
EndChar

StartChar: A
Encoding: 65 65 36
Width: 816
VWidth: 200
Flags: HW
LayerCount: 2
Fore
SplineSet
130 64 m 1
 99 95 l 1
 99 477 l 1
 120 477 l 1
 130 467 l 1
 161 436 l 1
 161 95 l 1
 130 64 l 1
163 500 m 1
 194 531 l 1
 622 531 l 1
 653 500 l 1
 622 469 l 1
 194 469 l 1
 163 500 l 1
194 938 m 1
 163 969 l 1
 194 1000 l 1
 622 1000 l 1
 653 969 l 1
 622 938 l 1
 194 938 l 1
130 533 m 1
 120 523 l 1
 99 523 l 1
 99 905 l 1
 130 936 l 1
 161 905 l 1
 161 564 l 1
 130 533 l 1
686 936 m 1
 717 905 l 1
 717 523 l 1
 696 523 l 1
 686 533 l 1
 655 564 l 1
 655 905 l 1
 686 936 l 1
686 467 m 1
 696 477 l 1
 717 477 l 1
 717 95 l 1
 686 64 l 1
 655 95 l 1
 655 436 l 1
 686 467 l 1
EndSplineSet
EndChar

StartChar: B
Encoding: 66 66 37
Width: 816
VWidth: 200
Flags: HW
LayerCount: 2
Fore
SplineSet
130 64 m 1
 99 95 l 1
 99 477 l 1
 120 477 l 1
 130 467 l 1
 161 436 l 1
 161 95 l 1
 130 64 l 1
163 500 m 1
 194 531 l 1
 622 531 l 1
 653 500 l 1
 622 469 l 1
 194 469 l 1
 163 500 l 1
130 533 m 1
 120 523 l 1
 99 523 l 1
 99 905 l 1
 130 936 l 1
 161 905 l 1
 161 564 l 1
 130 533 l 1
686 467 m 1
 696 477 l 1
 717 477 l 1
 717 95 l 1
 686 64 l 1
 655 95 l 1
 655 436 l 1
 686 467 l 1
653 31 m 1
 622 0 l 1
 194 0 l 1
 163 31 l 1
 194 62 l 1
 622 62 l 1
 653 31 l 1
EndSplineSet
EndChar

StartChar: C
Encoding: 67 67 38
Width: 816
VWidth: 200
Flags: HW
LayerCount: 2
Fore
SplineSet
130 64 m 1
 99 95 l 1
 99 477 l 1
 120 477 l 1
 130 467 l 1
 161 436 l 1
 161 95 l 1
 130 64 l 1
163 500 m 1
 194 531 l 1
 622 531 l 1
 653 500 l 1
 622 469 l 1
 194 469 l 1
 163 500 l 1
653 31 m 1
 622 0 l 1
 194 0 l 1
 163 31 l 1
 194 62 l 1
 622 62 l 1
 653 31 l 1
EndSplineSet
EndChar

StartChar: D
Encoding: 68 68 39
Width: 816
VWidth: 200
Flags: HW
LayerCount: 2
Fore
SplineSet
130 64 m 1
 99 95 l 1
 99 477 l 1
 120 477 l 1
 130 467 l 1
 161 436 l 1
 161 95 l 1
 130 64 l 1
163 500 m 1
 194 531 l 1
 622 531 l 1
 653 500 l 1
 622 469 l 1
 194 469 l 1
 163 500 l 1
686 936 m 1
 717 905 l 1
 717 523 l 1
 696 523 l 1
 686 533 l 1
 655 564 l 1
 655 905 l 1
 686 936 l 1
686 467 m 1
 696 477 l 1
 717 477 l 1
 717 95 l 1
 686 64 l 1
 655 95 l 1
 655 436 l 1
 686 467 l 1
653 31 m 1
 622 0 l 1
 194 0 l 1
 163 31 l 1
 194 62 l 1
 622 62 l 1
 653 31 l 1
EndSplineSet
EndChar

StartChar: E
Encoding: 69 69 40
Width: 816
VWidth: 200
Flags: HW
LayerCount: 2
Fore
SplineSet
130 64 m 1
 99 95 l 1
 99 477 l 1
 120 477 l 1
 130 467 l 1
 161 436 l 1
 161 95 l 1
 130 64 l 1
163 500 m 1
 194 531 l 1
 622 531 l 1
 653 500 l 1
 622 469 l 1
 194 469 l 1
 163 500 l 1
194 938 m 1
 163 969 l 1
 194 1000 l 1
 622 1000 l 1
 653 969 l 1
 622 938 l 1
 194 938 l 1
130 533 m 1
 120 523 l 1
 99 523 l 1
 99 905 l 1
 130 936 l 1
 161 905 l 1
 161 564 l 1
 130 533 l 1
653 31 m 1
 622 0 l 1
 194 0 l 1
 163 31 l 1
 194 62 l 1
 622 62 l 1
 653 31 l 1
EndSplineSet
EndChar

StartChar: F
Encoding: 70 70 41
Width: 816
VWidth: 200
Flags: HW
LayerCount: 2
Fore
SplineSet
130 64 m 1
 99 95 l 1
 99 477 l 1
 120 477 l 1
 130 467 l 1
 161 436 l 1
 161 95 l 1
 130 64 l 1
163 500 m 1
 194 531 l 1
 622 531 l 1
 653 500 l 1
 622 469 l 1
 194 469 l 1
 163 500 l 1
194 938 m 1
 163 969 l 1
 194 1000 l 1
 622 1000 l 1
 653 969 l 1
 622 938 l 1
 194 938 l 1
130 533 m 1
 120 523 l 1
 99 523 l 1
 99 905 l 1
 130 936 l 1
 161 905 l 1
 161 564 l 1
 130 533 l 1
EndSplineSet
EndChar

StartChar: G
Encoding: 71 71 42
Width: 816
VWidth: 200
Flags: HW
LayerCount: 2
Fore
SplineSet
130 64 m 1
 99 95 l 1
 99 477 l 1
 120 477 l 1
 130 467 l 1
 161 436 l 1
 161 95 l 1
 130 64 l 1
194 938 m 1
 163 969 l 1
 194 1000 l 1
 622 1000 l 1
 653 969 l 1
 622 938 l 1
 194 938 l 1
130 533 m 1
 120 523 l 1
 99 523 l 1
 99 905 l 1
 130 936 l 1
 161 905 l 1
 161 564 l 1
 130 533 l 1
686 467 m 1
 696 477 l 1
 717 477 l 1
 717 95 l 1
 686 64 l 1
 655 95 l 1
 655 436 l 1
 686 467 l 1
653 31 m 1
 622 0 l 1
 194 0 l 1
 163 31 l 1
 194 62 l 1
 622 62 l 1
 653 31 l 1
EndSplineSet
EndChar

StartChar: H
Encoding: 72 72 43
Width: 816
VWidth: 200
Flags: HW
LayerCount: 2
Fore
SplineSet
130 64 m 1
 99 95 l 1
 99 477 l 1
 120 477 l 1
 130 467 l 1
 161 436 l 1
 161 95 l 1
 130 64 l 1
163 500 m 1
 194 531 l 1
 622 531 l 1
 653 500 l 1
 622 469 l 1
 194 469 l 1
 163 500 l 1
130 533 m 1
 120 523 l 1
 99 523 l 1
 99 905 l 1
 130 936 l 1
 161 905 l 1
 161 564 l 1
 130 533 l 1
686 467 m 1
 696 477 l 1
 717 477 l 1
 717 95 l 1
 686 64 l 1
 655 95 l 1
 655 436 l 1
 686 467 l 1
EndSplineSet
EndChar

StartChar: I
Encoding: 73 73 44
Width: 816
VWidth: 200
Flags: HW
LayerCount: 2
Fore
SplineSet
686 467 m 1
 696 477 l 1
 717 477 l 1
 717 95 l 1
 686 64 l 1
 655 95 l 1
 655 436 l 1
 686 467 l 1
EndSplineSet
EndChar

StartChar: J
Encoding: 74 74 45
Width: 816
VWidth: 200
Flags: HW
LayerCount: 2
Fore
SplineSet
130 64 m 1
 99 95 l 1
 99 477 l 1
 120 477 l 1
 130 467 l 1
 161 436 l 1
 161 95 l 1
 130 64 l 1
686 936 m 1
 717 905 l 1
 717 523 l 1
 696 523 l 1
 686 533 l 1
 655 564 l 1
 655 905 l 1
 686 936 l 1
686 467 m 1
 696 477 l 1
 717 477 l 1
 717 95 l 1
 686 64 l 1
 655 95 l 1
 655 436 l 1
 686 467 l 1
653 31 m 1
 622 0 l 1
 194 0 l 1
 163 31 l 1
 194 62 l 1
 622 62 l 1
 653 31 l 1
EndSplineSet
EndChar

StartChar: K
Encoding: 75 75 46
Width: 816
VWidth: 200
Flags: HW
LayerCount: 2
Fore
SplineSet
130 64 m 1
 99 95 l 1
 99 477 l 1
 120 477 l 1
 130 467 l 1
 161 436 l 1
 161 95 l 1
 130 64 l 1
163 500 m 1
 194 531 l 1
 622 531 l 1
 653 500 l 1
 622 469 l 1
 194 469 l 1
 163 500 l 1
194 938 m 1
 163 969 l 1
 194 1000 l 1
 622 1000 l 1
 653 969 l 1
 622 938 l 1
 194 938 l 1
130 533 m 1
 120 523 l 1
 99 523 l 1
 99 905 l 1
 130 936 l 1
 161 905 l 1
 161 564 l 1
 130 533 l 1
686 467 m 1
 696 477 l 1
 717 477 l 1
 717 95 l 1
 686 64 l 1
 655 95 l 1
 655 436 l 1
 686 467 l 1
EndSplineSet
EndChar

StartChar: L
Encoding: 76 76 47
Width: 816
VWidth: 200
Flags: HW
LayerCount: 2
Fore
SplineSet
130 64 m 1
 99 95 l 1
 99 477 l 1
 120 477 l 1
 130 467 l 1
 161 436 l 1
 161 95 l 1
 130 64 l 1
130 533 m 1
 120 523 l 1
 99 523 l 1
 99 905 l 1
 130 936 l 1
 161 905 l 1
 161 564 l 1
 130 533 l 1
653 31 m 1
 622 0 l 1
 194 0 l 1
 163 31 l 1
 194 62 l 1
 622 62 l 1
 653 31 l 1
EndSplineSet
EndChar

StartChar: M
Encoding: 77 77 48
Width: 816
VWidth: 200
Flags: HW
LayerCount: 2
Fore
SplineSet
130 64 m 1
 99 95 l 1
 99 477 l 1
 120 477 l 1
 130 467 l 1
 161 436 l 1
 161 95 l 1
 130 64 l 1
194 938 m 1
 163 969 l 1
 194 1000 l 1
 622 1000 l 1
 653 969 l 1
 622 938 l 1
 194 938 l 1
130 533 m 1
 120 523 l 1
 99 523 l 1
 99 905 l 1
 130 936 l 1
 161 905 l 1
 161 564 l 1
 130 533 l 1
686 936 m 1
 717 905 l 1
 717 523 l 1
 696 523 l 1
 686 533 l 1
 655 564 l 1
 655 905 l 1
 686 936 l 1
686 467 m 1
 696 477 l 1
 717 477 l 1
 717 95 l 1
 686 64 l 1
 655 95 l 1
 655 436 l 1
 686 467 l 1
EndSplineSet
EndChar

StartChar: N
Encoding: 78 78 49
Width: 816
VWidth: 200
Flags: HW
LayerCount: 2
Fore
SplineSet
130 64 m 1
 99 95 l 1
 99 477 l 1
 120 477 l 1
 130 467 l 1
 161 436 l 1
 161 95 l 1
 130 64 l 1
163 500 m 1
 194 531 l 1
 622 531 l 1
 653 500 l 1
 622 469 l 1
 194 469 l 1
 163 500 l 1
686 467 m 1
 696 477 l 1
 717 477 l 1
 717 95 l 1
 686 64 l 1
 655 95 l 1
 655 436 l 1
 686 467 l 1
EndSplineSet
EndChar

StartChar: O
Encoding: 79 79 50
Width: 816
VWidth: 200
Flags: HW
LayerCount: 2
Fore
SplineSet
130 64 m 1
 99 95 l 1
 99 477 l 1
 120 477 l 1
 130 467 l 1
 161 436 l 1
 161 95 l 1
 130 64 l 1
163 500 m 1
 194 531 l 1
 622 531 l 1
 653 500 l 1
 622 469 l 1
 194 469 l 1
 163 500 l 1
686 467 m 1
 696 477 l 1
 717 477 l 1
 717 95 l 1
 686 64 l 1
 655 95 l 1
 655 436 l 1
 686 467 l 1
653 31 m 1
 622 0 l 1
 194 0 l 1
 163 31 l 1
 194 62 l 1
 622 62 l 1
 653 31 l 1
EndSplineSet
EndChar

StartChar: P
Encoding: 80 80 51
Width: 816
VWidth: 200
Flags: HW
LayerCount: 2
Fore
SplineSet
130 64 m 1
 99 95 l 1
 99 477 l 1
 120 477 l 1
 130 467 l 1
 161 436 l 1
 161 95 l 1
 130 64 l 1
163 500 m 1
 194 531 l 1
 622 531 l 1
 653 500 l 1
 622 469 l 1
 194 469 l 1
 163 500 l 1
194 938 m 1
 163 969 l 1
 194 1000 l 1
 622 1000 l 1
 653 969 l 1
 622 938 l 1
 194 938 l 1
130 533 m 1
 120 523 l 1
 99 523 l 1
 99 905 l 1
 130 936 l 1
 161 905 l 1
 161 564 l 1
 130 533 l 1
686 936 m 1
 717 905 l 1
 717 523 l 1
 696 523 l 1
 686 533 l 1
 655 564 l 1
 655 905 l 1
 686 936 l 1
EndSplineSet
EndChar

StartChar: Q
Encoding: 81 81 52
Width: 816
VWidth: 200
Flags: HW
LayerCount: 2
Fore
SplineSet
163 500 m 1
 194 531 l 1
 622 531 l 1
 653 500 l 1
 622 469 l 1
 194 469 l 1
 163 500 l 1
194 938 m 1
 163 969 l 1
 194 1000 l 1
 622 1000 l 1
 653 969 l 1
 622 938 l 1
 194 938 l 1
130 533 m 1
 120 523 l 1
 99 523 l 1
 99 905 l 1
 130 936 l 1
 161 905 l 1
 161 564 l 1
 130 533 l 1
686 936 m 1
 717 905 l 1
 717 523 l 1
 696 523 l 1
 686 533 l 1
 655 564 l 1
 655 905 l 1
 686 936 l 1
686 467 m 1
 696 477 l 1
 717 477 l 1
 717 95 l 1
 686 64 l 1
 655 95 l 1
 655 436 l 1
 686 467 l 1
EndSplineSet
EndChar

StartChar: R
Encoding: 82 82 53
Width: 816
VWidth: 200
Flags: HW
LayerCount: 2
Fore
SplineSet
130 64 m 1
 99 95 l 1
 99 477 l 1
 120 477 l 1
 130 467 l 1
 161 436 l 1
 161 95 l 1
 130 64 l 1
163 500 m 1
 194 531 l 1
 622 531 l 1
 653 500 l 1
 622 469 l 1
 194 469 l 1
 163 500 l 1
EndSplineSet
EndChar

StartChar: S
Encoding: 83 83 54
Width: 816
VWidth: 200
Flags: HW
LayerCount: 2
Fore
SplineSet
163 500 m 1
 194 531 l 1
 622 531 l 1
 653 500 l 1
 622 469 l 1
 194 469 l 1
 163 500 l 1
130 533 m 1
 120 523 l 1
 99 523 l 1
 99 905 l 1
 130 936 l 1
 161 905 l 1
 161 564 l 1
 130 533 l 1
686 467 m 1
 696 477 l 1
 717 477 l 1
 717 95 l 1
 686 64 l 1
 655 95 l 1
 655 436 l 1
 686 467 l 1
653 31 m 1
 622 0 l 1
 194 0 l 1
 163 31 l 1
 194 62 l 1
 622 62 l 1
 653 31 l 1
EndSplineSet
EndChar

StartChar: T
Encoding: 84 84 55
Width: 816
VWidth: 200
Flags: HW
LayerCount: 2
Fore
SplineSet
130 64 m 1
 99 95 l 1
 99 477 l 1
 120 477 l 1
 130 467 l 1
 161 436 l 1
 161 95 l 1
 130 64 l 1
163 500 m 1
 194 531 l 1
 622 531 l 1
 653 500 l 1
 622 469 l 1
 194 469 l 1
 163 500 l 1
130 533 m 1
 120 523 l 1
 99 523 l 1
 99 905 l 1
 130 936 l 1
 161 905 l 1
 161 564 l 1
 130 533 l 1
653 31 m 1
 622 0 l 1
 194 0 l 1
 163 31 l 1
 194 62 l 1
 622 62 l 1
 653 31 l 1
EndSplineSet
EndChar

StartChar: U
Encoding: 85 85 56
Width: 816
VWidth: 200
Flags: HW
LayerCount: 2
Fore
SplineSet
130 64 m 1
 99 95 l 1
 99 477 l 1
 120 477 l 1
 130 467 l 1
 161 436 l 1
 161 95 l 1
 130 64 l 1
686 467 m 1
 696 477 l 1
 717 477 l 1
 717 95 l 1
 686 64 l 1
 655 95 l 1
 655 436 l 1
 686 467 l 1
653 31 m 1
 622 0 l 1
 194 0 l 1
 163 31 l 1
 194 62 l 1
 622 62 l 1
 653 31 l 1
EndSplineSet
EndChar

StartChar: V
Encoding: 86 86 57
Width: 816
VWidth: 200
Flags: HW
LayerCount: 2
Fore
SplineSet
130 64 m 1
 99 95 l 1
 99 477 l 1
 120 477 l 1
 130 467 l 1
 161 436 l 1
 161 95 l 1
 130 64 l 1
130 533 m 1
 120 523 l 1
 99 523 l 1
 99 905 l 1
 130 936 l 1
 161 905 l 1
 161 564 l 1
 130 533 l 1
686 936 m 1
 717 905 l 1
 717 523 l 1
 696 523 l 1
 686 533 l 1
 655 564 l 1
 655 905 l 1
 686 936 l 1
686 467 m 1
 696 477 l 1
 717 477 l 1
 717 95 l 1
 686 64 l 1
 655 95 l 1
 655 436 l 1
 686 467 l 1
653 31 m 1
 622 0 l 1
 194 0 l 1
 163 31 l 1
 194 62 l 1
 622 62 l 1
 653 31 l 1
EndSplineSet
EndChar

StartChar: W
Encoding: 87 87 58
Width: 816
VWidth: 200
Flags: HW
LayerCount: 2
Fore
SplineSet
130 64 m 1
 99 95 l 1
 99 477 l 1
 120 477 l 1
 130 467 l 1
 161 436 l 1
 161 95 l 1
 130 64 l 1
163 500 m 1
 194 531 l 1
 622 531 l 1
 653 500 l 1
 622 469 l 1
 194 469 l 1
 163 500 l 1
130 533 m 1
 120 523 l 1
 99 523 l 1
 99 905 l 1
 130 936 l 1
 161 905 l 1
 161 564 l 1
 130 533 l 1
686 936 m 1
 717 905 l 1
 717 523 l 1
 696 523 l 1
 686 533 l 1
 655 564 l 1
 655 905 l 1
 686 936 l 1
686 467 m 1
 696 477 l 1
 717 477 l 1
 717 95 l 1
 686 64 l 1
 655 95 l 1
 655 436 l 1
 686 467 l 1
653 31 m 1
 622 0 l 1
 194 0 l 1
 163 31 l 1
 194 62 l 1
 622 62 l 1
 653 31 l 1
EndSplineSet
EndChar

StartChar: X
Encoding: 88 88 59
Width: 816
VWidth: 200
Flags: HW
LayerCount: 2
Fore
SplineSet
130 64 m 1
 99 95 l 1
 99 477 l 1
 120 477 l 1
 130 467 l 1
 161 436 l 1
 161 95 l 1
 130 64 l 1
163 500 m 1
 194 531 l 1
 622 531 l 1
 653 500 l 1
 622 469 l 1
 194 469 l 1
 163 500 l 1
130 533 m 1
 120 523 l 1
 99 523 l 1
 99 905 l 1
 130 936 l 1
 161 905 l 1
 161 564 l 1
 130 533 l 1
686 936 m 1
 717 905 l 1
 717 523 l 1
 696 523 l 1
 686 533 l 1
 655 564 l 1
 655 905 l 1
 686 936 l 1
686 467 m 1
 696 477 l 1
 717 477 l 1
 717 95 l 1
 686 64 l 1
 655 95 l 1
 655 436 l 1
 686 467 l 1
EndSplineSet
EndChar

StartChar: Y
Encoding: 89 89 60
Width: 816
VWidth: 200
Flags: HW
LayerCount: 2
Fore
SplineSet
163 500 m 1
 194 531 l 1
 622 531 l 1
 653 500 l 1
 622 469 l 1
 194 469 l 1
 163 500 l 1
130 533 m 1
 120 523 l 1
 99 523 l 1
 99 905 l 1
 130 936 l 1
 161 905 l 1
 161 564 l 1
 130 533 l 1
686 936 m 1
 717 905 l 1
 717 523 l 1
 696 523 l 1
 686 533 l 1
 655 564 l 1
 655 905 l 1
 686 936 l 1
686 467 m 1
 696 477 l 1
 717 477 l 1
 717 95 l 1
 686 64 l 1
 655 95 l 1
 655 436 l 1
 686 467 l 1
653 31 m 1
 622 0 l 1
 194 0 l 1
 163 31 l 1
 194 62 l 1
 622 62 l 1
 653 31 l 1
EndSplineSet
EndChar

StartChar: Z
Encoding: 90 90 61
Width: 816
VWidth: 200
Flags: HW
LayerCount: 2
Fore
SplineSet
130 64 m 1
 99 95 l 1
 99 477 l 1
 120 477 l 1
 130 467 l 1
 161 436 l 1
 161 95 l 1
 130 64 l 1
194 938 m 1
 163 969 l 1
 194 1000 l 1
 622 1000 l 1
 653 969 l 1
 622 938 l 1
 194 938 l 1
686 936 m 1
 717 905 l 1
 717 523 l 1
 696 523 l 1
 686 533 l 1
 655 564 l 1
 655 905 l 1
 686 936 l 1
653 31 m 1
 622 0 l 1
 194 0 l 1
 163 31 l 1
 194 62 l 1
 622 62 l 1
 653 31 l 1
EndSplineSet
EndChar

StartChar: hyphen
Encoding: 45 45 62
Width: 816
VWidth: 200
Flags: HW
LayerCount: 2
Fore
SplineSet
163 500 m 1
 194 531 l 1
 622 531 l 1
 653 500 l 1
 622 469 l 1
 194 469 l 1
 163 500 l 1
EndSplineSet
EndChar

StartChar: colon
Encoding: 58 58 63
Width: 200
VWidth: 0
Flags: HW
LayerCount: 2
Fore
SplineSet
162 693 m 0
 162 684 160 676 157 669 c 0
 154 662 150 655 144 649 c 0
 138 643 131 639 124 636 c 0
 117 633 109 631 100 631 c 0
 91 631 83 633 76 636 c 0
 69 639 62 643 56 649 c 0
 50 655 46 662 43 669 c 0
 40 676 38 684 38 693 c 0
 38 702 40 710 43 717 c 0
 46 724 50 730 56 736 c 0
 62 742 69 747 76 750 c 0
 83 753 91 754 100 754 c 0
 109 754 117 753 124 750 c 0
 131 747 138 742 144 736 c 0
 150 730 154 724 157 717 c 0
 160 710 162 702 162 693 c 0
162 281 m 0
 162 272 160 264 157 257 c 0
 154 250 150 243 144 237 c 0
 138 231 131 227 124 224 c 0
 117 221 109 219 100 219 c 0
 91 219 83 221 76 224 c 0
 69 227 62 231 56 237 c 0
 50 243 46 250 43 257 c 0
 40 264 38 272 38 281 c 0
 38 290 40 298 43 305 c 0
 46 312 50 318 56 324 c 0
 62 330 69 335 76 338 c 0
 83 341 91 342 100 342 c 0
 109 342 117 341 124 338 c 0
 131 335 138 330 144 324 c 0
 150 318 154 312 157 305 c 0
 160 298 162 290 162 281 c 0
EndSplineSet
EndChar

StartChar: period
Encoding: 46 46 64
Width: 0
VWidth: 0
Flags: HW
LayerCount: 2
Fore
SplineSet
62 62 m 0
 62 53 60 45 57 38 c 0
 54 31 50 24 44 18 c 0
 38 12 31 8 24 5 c 0
 17 2 9 0 0 0 c 0
 -9 0 -17 2 -24 5 c 0
 -31 8 -38 12 -44 18 c 0
 -50 24 -54 31 -57 38 c 0
 -60 45 -62 53 -62 62 c 0
 -62 71 -60 79 -57 86 c 0
 -54 93 -50 100 -44 106 c 0
 -38 112 -31 116 -24 119 c 0
 -17 122 -9 124 0 124 c 0
 9 124 17 122 24 119 c 0
 31 116 38 112 44 106 c 0
 50 100 54 93 57 86 c 0
 60 79 62 71 62 62 c 0
EndSplineSet
EndChar

StartChar: underscore
Encoding: 95 95 67
Width: 816
VWidth: 200
Flags: HW
LayerCount: 2
Fore
SplineSet
653 31 m 1
 622 0 l 1
 194 0 l 1
 163 31 l 1
 194 62 l 1
 622 62 l 1
 653 31 l 1
EndSplineSet
EndChar

StartChar: degree
Encoding: 176 176 68
Width: 816
VWidth: 200
Flags: HW
LayerCount: 2
Fore
SplineSet
163 500 m 1
 194 531 l 1
 622 531 l 1
 653 500 l 1
 622 469 l 1
 194 469 l 1
 163 500 l 1
194 938 m 1
 163 969 l 1
 194 1000 l 1
 622 1000 l 1
 653 969 l 1
 622 938 l 1
 194 938 l 1
130 533 m 1
 120 523 l 1
 99 523 l 1
 99 905 l 1
 130 936 l 1
 161 905 l 1
 161 564 l 1
 130 533 l 1
686 936 m 1
 717 905 l 1
 717 523 l 1
 696 523 l 1
 686 533 l 1
 655 564 l 1
 655 905 l 1
 686 936 l 1
EndSplineSet
EndChar
